<svg xmlns="http://www.w3.org/2000/svg" viewBox="0 0 32 32" width="32" height="32">
  <!-- Background circle -->
  <circle cx="16" cy="16" r="15" fill="#f8f5f0" stroke="#d4af37" stroke-width="2"/>
  
  <!-- Interlocked wedding rings -->
  <g fill="none" stroke="#d4af37" stroke-width="2.5">
    <!-- First ring -->
    <circle cx="12" cy="14" r="5"/>
    <!-- Second ring -->
    <circle cx="20" cy="18" r="5"/>
  </g>
  
  <!-- Small hearts -->
  <g fill="#d4af37">
    <!-- Heart 1 -->
    <path d="M8 10c0-1.5 1.5-2.5 3-1.5s3-1.5 3 0c0 1.5-3 4.5-3 4.5s-3-3-3-4.5z" transform="scale(0.6) translate(6,2)"/>
    <!-- Heart 2 -->
    <path d="M8 10c0-1.5 1.5-2.5 3-1.5s3-1.5 3 0c0 1.5-3 4.5-3 4.5s-3-3-3-4.5z" transform="scale(0.5) translate(26,18)"/>
  </g>
  
  <!-- Initials -->
  <text x="16" y="28" font-family="serif" font-size="8" font-weight="bold" text-anchor="middle" fill="#d4af37">S&P</text>
</svg>